<?xml version="1.0" encoding="utf-8"?>
<COLLADA xmlns="http://www.collada.org/2005/11/COLLADASchema" version="1.4.1">
  <asset>
    <contributor>
      <author>Blender User</author>
      <authoring_tool>Blender 2.78.0 commit date:2017-02-24, commit time:14:33, hash:e92f235283</authoring_tool>
    </contributor>
    <created>2020-10-12T17:51:49</created>
    <modified>2020-10-12T17:51:49</modified>
    <unit name="meter" meter="1"/>
    <up_axis>Z_UP</up_axis>
  </asset>
  <library_images/>
  <library_effects>
    <effect id="LinkGrey_002-effect">
      <profile_COMMON>
        <technique sid="common">
          <phong>
            <emission>
              <color sid="emission">0 0 0 1</color>
            </emission>
            <ambient>
              <color sid="ambient">0 0 0 1</color>
            </ambient>
            <diffuse>
              <color sid="diffuse">0.8203922 0.8203922 0.8203922 1</color>
            </diffuse>
            <specular>
              <color sid="specular">0.25 0.25 0.25 1</color>
            </specular>
            <shininess>
              <float sid="shininess">0</float>
            </shininess>
            <index_of_refraction>
              <float sid="index_of_refraction">1</float>
            </index_of_refraction>
          </phong>
        </technique>
      </profile_COMMON>
    </effect>
  </library_effects>
  <library_materials>
    <material id="LinkGrey_002-material" name="LinkGrey_002">
      <instance_effect url="#LinkGrey_002-effect"/>
    </material>
  </library_materials>
  <library_geometries>
    <geometry id="eSeries_UR5e_058-mesh" name="eSeries UR5e.058">
      <mesh>
        <source id="eSeries_UR5e_058-mesh-positions">
          <float_array id="eSeries_UR5e_058-mesh-positions-array" count="1455">1.911164 43.51731 66.91934 -1.930693 43.44939 65.90201 -2.183813 43.44381 68.34186 2.078753 43.41179 65.51548 -0.9332018 40.8521 72.15565 0.7674334 41.31041 72.13608 2.358598 41.3104 71.58493 3.696645 40.85204 70.56025 4.507632 41.55351 69.07719 4.866287 41.27283 67.03349 4.381724 41.34799 65.26049 3.403427 41.34797 63.8878 1.37716 41.15232 62.64779 -0.1223266 41.38584 62.53082 -1.586951 41.31039 62.76651 -3.384526 41.31544 63.83565 -4.529929 41.31043 65.61894 -4.854666 41.29059 67.28862 -4.499549 41.24213 69.25669 -2.916456 40.86779 71.31809 -1.182612 41.91432 71.79449 -1.508891 43.037 70.61665 -3.249703 42.14373 70.44701 -3.442518 43.0025 68.52941 -3.69445 42.94204 66.73839 -2.900552 42.63394 64.47216 -1.900191 43.16608 64.61894 -0.2247034 42.5634 63.18352 0.7821912 43.34275 64.43846 2.269175 42.18852 63.53231 3.325075 42.69643 65.15615 3.697303 42.97077 67.18048 3.332834 42.9069 68.9614 3.7092 41.90756 70.07672 1.438681 42.76676 71.03916 2.03089 43.34052 69.46076 0.01024764 43.43203 69.93967 -4.98148 39.43616 66.96067 -4.065622 39.43604 70.25263 -1.653111 39.43603 72.01772 0.9031314 39.43603 72.2187 3.21732 39.43603 71.11466 4.838231 39.43604 68.59597 4.745429 39.43603 66.03951 3.76642 39.43604 64.1311 1.247725 39.43604 62.51014 -1.735037 39.43603 62.70875 -3.822391 39.43603 64.19792 4.36633e-5 24.43604 90.89574 -3.028306 25.04068 92.69477 -2.538931 22.73727 92.69612 -0.8527937 21.50272 92.69612 0.982804 21.57116 92.69692 2.464757 22.63122 92.69612 3.052535 24.90377 92.69477 1.804748 26.90085 92.69612 -0.2015526 27.48427 92.69612 -1.902943 26.79244 92.69692 15.12117 12.94469 89.79833 18.21953 21.92053 89.79833 18.40644 12.37369 89.79833 12.97548 15.97892 89.79833 13.09358 18.4189 89.79833 14.63446 20.94197 89.79833 20.47263 20.97461 89.79833 22.31593 18.66407 89.79833 22.14703 15.37472 89.79833 20.67892 13.37312 89.79833 -20.23418 12.94469 89.79833 -17.13581 21.92053 89.79833 -16.9489 12.37369 89.79833 -22.37986 15.97892 89.79833 -22.26176 18.4189 89.79833 -20.72088 20.94197 89.79833 -14.17292 20.44786 89.79833 -13.05513 18.27573 89.79833 -13.0379 15.74564 89.79833 -14.67643 13.37312 89.79833 18.39885 -23.07856 89.79833 18.21953 -13.43482 89.79833 14.80481 -22.13334 89.79833 12.97548 -19.37643 89.79833 13.09358 -16.93644 89.79833 14.63446 -14.41338 89.79833 21.18243 -14.90749 89.79833 22.30022 -17.07962 89.79833 22.31744 -19.60971 89.79833 20.99526 -21.66389 89.79833 -16.95649 -23.07856 89.79833 -17.13581 -13.43482 89.79833 -20.55053 -22.13334 89.79833 -22.37986 -19.37643 89.79833 -22.26176 -16.93644 89.79833 -20.72088 -14.41338 89.79833 -14.17292 -14.90749 89.79833 -13.05513 -17.07962 89.79833 -13.0379 -19.60971 89.79833 -14.36008 -21.66389 89.79833 -1.294488 15.18517 92.69831 -13.829 7.079706 92.69832 3.847384 14.76277 92.6983 8.57923 12.70613 92.69829 14.89126 4.718681 92.69828 12.39584 9.235258 92.69828 15.79814 -0.3628844 92.69827 12.63268 -10.04805 92.69828 15.01805 -5.466911 92.69826 8.89546 -13.61575 92.6983 -1.394039 -16.32954 92.69837 4.203702 -15.78701 92.69834 -6.639836 -14.89454 92.69831 -14.01392 -7.855438 92.69827 -10.91075 -11.98588 92.69828 -15.618 -2.946669 92.69826 -15.55352 2.215297 92.69827 -10.62928 11.12834 92.69829 -6.296473 13.92945 92.6983 -4.753172 36.43603 66.06483 -3.791726 36.43603 64.1599 -1.29021 36.43603 62.52075 1.699404 36.43603 62.69474 3.798536 36.43603 64.1679 4.758208 36.43603 66.0833 4.878022 36.43603 68.21376 4.027591 36.43603 70.18016 2.108984 36.43603 71.87852 -1.296383 36.43603 72.17425 -3.488126 36.43603 70.82297 -4.827542 36.43603 68.63853 -0.796177 21.40692 98.79719 1.057285 21.51952 98.79102 2.679122 22.78203 98.79513 3.097666 25.05752 98.80152 2.006174 26.81396 98.80825 0.2584391 27.55746 98.79718 -1.534057 27.14595 98.81213 -2.726375 26.02113 98.80984 -3.108368 24.13763 98.78349 -2.379192 22.44515 98.79104 18.5739 12.40263 98.3852 20.78827 13.46295 98.39478 22.19683 15.50719 98.39478 22.39618 17.97457 98.40036 20.78649 20.88631 98.38842 17.21509 21.92837 98.39219 14.22862 20.50475 98.3922 12.94783 17.90803 98.39918 13.18309 15.43992 98.39478 15.27214 12.85817 98.38762 -16.80916 12.39683 98.39476 -14.5671 13.46292 98.39477 -12.99511 15.90183 98.39218 -13.46627 19.59595 98.38697 -16.46597 21.7963 98.39218 -18.95385 21.70631 98.39144 -21.12675 20.50472 98.3922 -22.40751 17.90803 98.39918 -21.88857 14.63089 98.38761 -19.28105 12.59358 98.3992 17.7136 -23.03766 98.39476 20.88128 -21.93258 98.36882 22.49953 -18.62217 98.39217 21.36855 -15.03789 98.36904 18.05827 -13.41981 98.39219 14.50148 -14.52569 98.38763 12.85589 -17.86102 98.39218 13.54399 -20.67367 98.39918 15.31039 -22.41283 98.39478 -18.05786 -23.06344 98.39218 -14.86942 -22.17975 98.39217 -13.15748 -19.84495 98.39918 -13.09943 -16.52801 98.38763 -15.3105 -14.07027 98.39476 -18.17379 -13.43112 98.37814 -21.12676 -14.85064 98.3922 -22.49945 -17.86103 98.39218 -21.81134 -20.67367 98.39918 -20.37591 -22.17103 98.39144 -1.169513 15.23702 97.89898 4.783272 14.49003 97.89467 8.417615 12.74799 97.89832 11.24462 10.5306 97.89543 14.14678 6.463265 97.91197 15.65487 1.551327 97.88961 15.53165 -3.447024 97.90504 13.81276 -8.230003 97.90513 10.60761 -12.27152 97.89031 6.412875 -15.00241 97.90515 2.526382 -16.11 97.89834 -1.610235 -16.2853 97.89176 -4.98762 -15.50326 97.89833 -8.659039 -13.77751 97.91379 -12.39965 -10.35237 97.90515 -14.86569 -5.908195 97.90509 -15.75635 -1.319583 97.9223 -15.43164 2.586563 97.89833 -14.13455 6.487237 97.90473 -11.16312 10.61073 97.90453 -7.026411 13.58142 97.9122 17.07917 22.42492 98.89673 13.80551 20.79762 98.89655 21.21146 21.29445 98.92314 22.24323 14.09945 98.8927 22.86974 18.12453 98.89781 12.22202 16.53511 98.89558 15.10148 12.36562 98.89522 18.80719 11.92415 98.89787 -22.61687 15.1919 98.89774 -20.25936 12.39149 98.8955 -20.44899 21.62375 98.89788 -22.77593 18.836 98.89491 -13.39862 20.49594 98.89619 -17.34495 22.44815 98.89673 -16.16577 11.98677 98.89718 -13.22431 14.15822 98.89673 -12.38884 17.11363 98.89786 18.9173 -12.92682 98.89311 14.09689 -14.19687 98.89523 12.34328 -17.90894 98.89673 22.30463 -20.80471 98.89775 22.88033 -20.6213 98.91772 22.46397 -15.8625 98.89688 20.87799 -22.63478 98.9365 13.61467 -21.80965 98.8954 17.3451 -23.57598 98.89673 -22.01652 -21.49654 98.93031 -19.35754 -23.35761 98.89501 -21.55036 -14.55759 98.89699 -23.01221 -17.90893 98.89688 -13.05071 -20.80471 98.89775 -12.38488 -17.16317 98.89471 -14.72205 -13.78816 98.89688 -18.40409 -12.92756 98.89695 -15.29824 -23.0278 98.89701 -4.018386 -16.8792 98.89761 -8.967308 -14.74846 98.89797 -13.90171 -10.15937 98.8968 -16.74091 -2.664334 98.89707 -16.13968 4.11133 98.89775 -13.8289 8.981402 98.89791 -9.947896 12.99927 98.89802 -5.320919 15.37438 98.89761 -0.2723121 16.2175 98.89787 4.946775 15.48297 98.89772 9.692213 13.1595 98.89808 13.59492 9.293126 98.89797 16.11474 4.233342 98.8977 16.74154 -2.664403 98.89762 14.55216 -8.965528 98.89785 11.3318 -12.94484 98.89801 6.818603 -15.94503 98.89794 1.595023 -17.28679 98.89791 -4.885943 33.43282 68.17621 -4.7519 33.43282 66.05437 -3.774839 33.43282 64.13764 -1.66372 33.43282 62.68033 0.4492345 33.43282 62.44388 2.094844 33.39454 62.82079 3.817525 33.43282 64.18841 4.762338 33.43282 66.093 5.024706 33.40277 67.10101 4.071759 33.43282 70.24767 2.063234 33.43282 71.82031 0.4092838 33.43282 72.25626 -2.148192 33.43282 71.86166 -4.04567 33.43282 70.15679 -10.75566 28.06883 98.89849 -18.30907 23.90184 98.89844 15.58799 25.85326 98.8988 -2.13081 29.9102 98.89842 5.624785 29.49856 98.89843 26.80252 14.21256 98.89877 30.42261 3.587103 98.89894 -30.49541 -1.862897 98.89838 -23.94874 18.36002 98.89842 -29.30059 8.794404 98.89994 14.23392 -27.59361 98.89847 5.773744 -30.62265 98.89847 29.94952 -6.868041 98.89882 26.90606 -15.03025 98.89847 -15.94574 -26.80319 98.89886 -4.856221 -30.79422 98.89881 -28.30504 -12.60282 98.89981 -12.89702 28.2314 97.9186 -7.398867 30.05481 97.89833 -19.22258 24.45783 97.88661 -23.24171 20.698 97.89833 -31.48612 0.3695068 97.89833 -30.89889 5.826431 97.90331 -27.87339 14.41088 97.86993 -30.89025 -7.416829 97.86993 -27.57819 -15.89431 97.9033 -21.94001 -23.36618 97.87857 -5.426847 -31.73806 97.89318 -14.30896 -28.68566 97.90329 3.924966 -31.87036 97.91862 12.90067 -29.45804 97.90663 22.14208 -23.17009 97.87857 31.54193 -1.404008 97.88658 30.46607 -8.773863 97.9033 27.6855 -15.69981 97.9033 25.59338 17.79993 97.89833 28.43797 13.10599 97.9033 30.85324 6.043748 97.9033 21.83722 22.20974 97.91856 17.59742 25.56238 97.89833 12.54091 28.38831 97.91862 -1.980224 30.92668 97.90329 5.472026 30.5108 97.90329 2.200063 30.90948 92.39834 9.531154 29.51227 92.39834 16.32866 26.43229 92.39834 23.66116 20.44326 92.39834 28.62455 12.70468 92.39834 31.36034 3.641132 92.39834 31.15385 -5.549724 92.39834 29.11116 -12.72785 92.39834 24.27014 -20.86445 92.39834 17.34951 -26.91562 92.39834 10.67435 -30.25359 92.39834 3.40214 -31.93014 92.39834 -4.060378 -31.85173 92.39834 -11.29576 -30.02274 92.39834 -17.8993 -26.54525 92.39834 -24.86386 -20.13264 92.39834 -29.36023 -12.11349 92.39834 -31.25164 -4.894032 92.39834 -31.22112 4.57311 92.39834 -28.33934 13.30321 92.39834 -23.02488 21.13868 92.39834 -14.02717 27.79787 92.39834 -5.254286 30.54571 92.39834 4.333391 33.42885 64.31397 -0.4611958 33.42885 62.07835 -2.990505 33.43053 63.07731 -4.794441 33.42886 65.11261 -5.110973 33.43001 68.71771 -3.37191 33.42991 71.36682 -0.4609349 33.42918 72.61863 3.03423 33.42886 71.68182 4.929498 33.42991 69.14241 -34.58701 -6.718372 92.39891 -30.81139 -17.4399 92.39884 -25.2115 -24.90813 92.39849 -16.02919 -31.9569 92.39963 -3.323593 -35.53669 92.39891 22.40319 26.64915 92.39975 12.65914 32.11639 92.39849 3.323687 34.40895 92.39884 -8.017374 33.63941 92.39884 -16.71229 30.24114 92.39851 9.951461 -34.37851 92.39964 19.9451 -29.38142 92.39849 28.38611 -21.46109 92.39964 -25.9604 23.27966 92.39964 -32.80918 11.99394 92.39884 -34.87579 2.890646 92.39849 34.53695 -7.610457 92.39975 34.58715 5.590579 92.39884 30.81138 16.31227 92.39884 -35.74442 7.446655 53.14831 -36.4087 3.46582 53.14831 -34.64625 11.3302 53.14831 -33.12753 15.06934 53.14831 -31.20668 18.61878 53.14831 -28.90702 21.9353 53.14831 -23.2872 27.71216 53.14831 -26.25647 24.97888 53.14831 -20.03525 30.10242 53.14831 -16.54011 32.12036 53.14831 -12.84418 33.74158 53.14831 -8.992354 34.94629 53.14831 -5.031364 35.71997 53.14831 3.025014 35.94202 53.14831 -1.009301 36.05322 53.14831 7.02261 35.38769 53.14831 10.93496 34.39697 53.14831 14.71458 32.98181 53.14831 18.31558 31.15942 53.14831 21.69426 28.95203 53.14831 27.62378 23.49365 53.14831 24.8096 26.38648 53.14831 30.10265 20.30884 53.14831 32.21611 16.87061 53.14831 33.93851 13.2207 53.14831 36.13151 5.465332 53.14831 35.24895 9.403566 53.14831 36.57549 1.453979 53.14831 36.57549 -2.581909 53.14831 36.13151 -6.59314 53.14831 35.24895 -10.53137 53.14831 33.93851 -14.34851 53.14831 30.10265 -21.43665 53.14831 32.21611 -17.99841 53.14831 27.62378 -24.62146 53.14831 24.8096 -27.51428 53.14831 21.69426 -30.07996 53.14831 18.31558 -32.28735 53.14831 14.71458 -34.10962 53.14831 7.02261 -36.5155 53.14831 10.93496 -35.52478 53.14831 3.025014 -37.06982 53.14831 -1.009301 -37.18103 53.14831 -5.031364 -36.84778 53.14831 -12.84418 -34.86938 53.14831 -8.992354 -36.0741 53.14831 -16.54011 -33.24817 53.14831 -20.03525 -31.23023 53.14831 -23.2872 -28.84009 53.14831 -26.25647 -26.10669 53.14831 -28.90702 -23.06323 53.14831 -33.12753 -16.19727 53.14831 -31.20668 -19.74658 53.14831 -34.64625 -12.45801 53.14831 -35.74442 -8.574463 53.14831 -36.4087 -4.593628 53.14831 -36.63103 -0.5639649 53.14831 15.78429 33.43595 73.3589 -9.209785 35.7955 75.73618 2.124264 36.90701 76.84078 -15.78247 33.43601 61.33686 -12.92859 34.64598 60.11116 -8.152645 36.07307 58.69514 -2.101033 36.9058 57.85337 2.187032 36.89397 89.92891 9.507431 35.75517 89.9251 15.74588 33.47009 89.89833 20.97866 30.58213 89.90333 28.57853 23.93589 89.90625 34.0312 15.31305 89.90316 36.64859 7.626446 89.90317 37.55245 -0.4433306 89.90318 36.70043 -8.51877 89.90319 34.13227 -16.22247 89.90317 29.9684 -23.19337 89.9032 22.91747 -30.42631 89.90626 12.18255 -36.18077 89.90625 2.153662 -38.05477 89.90316 -5.955579 -37.64123 89.9032 -13.78725 -35.49402 89.90318 -22.6439 -30.63422 89.90623 -31.06011 -21.82977 89.90622 -35.54812 -12.66871 89.90319 -37.3192 -4.743949 89.90318 -37.17414 5.35657 89.90625 -34.1324 15.09412 89.90319 -29.96837 22.06552 89.90319 -24.40288 27.97894 89.90318 -19.33323 31.56824 89.89833 -13.04812 34.63294 89.91052 -5.497727 36.55691 89.9208 -36.74782 -8.28375 53.14831 -37.54822 -0.2036533 53.14831 -36.12794 9.998272 53.14831 -31.98751 19.10324 53.14831 -27.01192 25.51967 53.14831 -20.66014 30.80093 53.14831 -13.25021 34.54553 53.14901 -5.917582 36.51664 53.14883 3.584626 36.87557 53.1487 13.30772 34.52523 53.14881 20.70828 30.81143 53.14773 29.01682 23.41138 53.14831 34.22933 14.87488 53.14831 36.7479 7.155948 53.14831 37.55392 -3.112583 53.14831 35.46773 -12.89455 53.14831 30.86477 -22.10819 53.14831 22.3699 -30.83565 53.14831 13.56318 -35.57887 53.14831 5.718395 -37.67592 53.14831 -2.392536 -38.03765 53.14831 -12.50297 -36.06697 53.14831 -23.18488 -30.21605 53.14831 -30.11013 -22.99995 53.14831 -34.22904 -16.00325 53.14831 12.17738 34.93448 59.82674 15.7961 33.43609 61.31904 7.087593 36.26489 58.49852 3.270331 36.80754 57.94678 -15.79765 33.43607 73.37878 -4.103998 36.73905 76.66783 12.9903 34.62224 74.56211 -12.92607 34.65119 74.59443 8.396646 36.01351 75.94995</float_array>
          <technique_common>
            <accessor source="#eSeries_UR5e_058-mesh-positions-array" count="485" stride="3">
              <param name="X" type="float"/>
              <param name="Y" type="float"/>
              <param name="Z" type="float"/>
            </accessor>
          </technique_common>
        </source>
        <source id="eSeries_UR5e_058-mesh-normals">
          <float_array id="eSeries_UR5e_058-mesh-normals-array" count="2577">0.002150952 0.9972039 -0.07469773 -0.01779216 0.9998417 4.37206e-4 -0.01041483 0.9997109 0.0216754 -0.3783056 0.2171297 0.8998553 -0.1535176 0.9638198 0.217908 -0.740018 0.5829502 0.3354736 -0.8154248 0.5560731 0.1608267 -0.7999826 0.5928485 0.09251296 -0.8319236 0.5326647 -0.1554718 -0.7317864 0.4948469 -0.4686312 -0.4220821 0.8667468 -0.2657008 -0.3606859 0.9089076 -0.2092674 -0.2875123 0.7159597 -0.6361905 0.1953231 0.5340331 -0.822592 0.2008474 0.7518155 -0.6280396 0.5979009 0.567346 -0.5662447 0.3403387 0.8114429 -0.4751106 0.338482 0.8208211 -0.46009 0.7003811 0.5102001 -0.4991616 0.7999759 0.567609 -0.1945733 0.8245098 0.5618029 0.06753683 0.7362158 0.6539627 0.1741235 0.2850707 0.9570322 0.05314213 0.798051 0.2430927 0.5513808 0.6978555 0.6342337 0.3327844 0.6427074 0.3127343 0.6993743 0.4938942 0.5609501 0.6643821 0.2854712 0.4891681 0.8241485 0.1319626 0.9146884 0.3820093 -0.07153326 0.3059846 0.9493453 0.04102927 0.5889926 0.8070964 -0.03364223 0.7187743 0.6944292 0.005223155 0.8585489 0.5127051 -0.3822329 0.6137017 0.6908461 -0.4646381 0.4132912 0.783136 -0.286866 0.9246494 0.2504627 -0.4486745 0.7979423 0.4024665 -0.7523387 0.2259647 0.6188106 -0.2884632 0.9570893 -0.02773678 -0.3289155 0.9442497 0.01439714 -0.7248905 0.6015202 -0.3357192 -0.07866925 0.9730574 -0.216727 -0.333074 0.6032773 -0.7246504 -0.4367904 0.5160372 -0.7368309 -0.08954131 0.8767076 -0.4726163 -0.1638786 0.4672977 -0.8687788 0.002859473 0.9977222 -0.0673983 0.1433055 0.4892867 -0.8602686 0.4778862 0.2949241 -0.8274326 0.297246 0.9541133 -0.0362302 0.443745 0.8735558 -0.1999766 0.7756559 0.5905773 -0.2226583 0.3502827 0.9307327 0.1050659 0.4322657 0.7832215 0.4468898 0.482271 0.7270425 0.4886963 0.06084471 0.9959353 0.06641328 -0.9600564 -0.0833761 0.267096 -0.983326 0.0357111 0.1783109 -0.7693685 0.156654 0.6192995 -0.5857952 -0.1256466 0.8006604 -0.3860923 0.1070383 0.9162291 -0.07825452 -0.05716317 0.9952933 -3.61184e-4 0.04400873 0.9990311 0.430397 -0.02916812 0.9021683 0.3266127 0.06520634 0.9429063 0.6250801 0.09189379 0.7751325 0.8386929 -0.07257652 0.5397472 0.8720692 0.02508413 0.4887396 0.98073 0.11768 0.1559494 0.9982805 -0.04607439 -0.03623843 0.8896285 -0.01671731 -0.4563789 0.9625687 0.07725292 -0.2597954 0.8117083 0.0804935 -0.5784899 0.5411756 -0.004260003 -0.8408989 0.5196968 0.02928674 -0.8538487 -0.06639587 -0.03607755 -0.997141 0.08885842 0.07296907 -0.9933679 -0.1608963 0.04309821 -0.98603 -0.5806398 -0.02160471 -0.8138739 -0.5099103 0.06671577 -0.8576367 -0.9207526 -0.05470633 -0.3862927 -0.8379777 0.09153163 -0.5379735 -0.9768905 0.1001926 -0.1888032 0.5239402 0.1118101 0.8443846 0.3138865 0.428705 0.8471643 -0.02002495 0.5272167 0.8494949 -0.3064718 0.4290756 0.8496877 -0.518349 0.1345691 0.8445149 -0.4540897 -0.284288 0.8443831 -0.1483572 -0.5101817 0.8471746 0.1990623 -0.488581 0.8495075 0.4460673 -0.2875994 0.8475321 7.32253e-7 0 1 -2.12959e-6 0 1 5.04687e-6 0 1 -4.04875e-6 0 1 4.40718e-6 0 1 0 0 1 -4.18397e-6 0 1 7.32251e-7 0 1 -2.12959e-6 0 1 5.04687e-6 0 1 -4.04876e-6 0 1 -6.37158e-6 0 1 4.61453e-6 0 1 -4.18398e-6 0 1 1.20497e-6 0 1 -4.04876e-6 0 1 2.97392e-6 0 1 -1.84039e-6 0 1 1.20657e-6 0 1 1.20496e-6 0 1 -4.04876e-6 0 1 2.97394e-6 0 1 1.20657e-6 0 1 5.1976e-6 -3.23667e-6 1 1.67889e-6 -3.65247e-7 1 1.47874e-6 7.68765e-7 1 6.14964e-7 -5.48993e-7 1 4.24437e-7 -2.80691e-6 1 4.51887e-6 3.17536e-6 1 2.3322e-6 -1.70483e-6 1 -3.8528e-7 1.64887e-6 1 3.54379e-6 3.92537e-6 1 7.71073e-6 6.37029e-6 1 -8.4322e-6 -4.03946e-6 1 -1.5547e-5 -3.45798e-6 1 -1.00415e-5 -3.45466e-6 1 -1.4728e-5 -3.38857e-6 1 -2.13205e-5 -1.13099e-6 1 -9.84296e-6 9.24961e-6 1 -2.1343e-5 1.8258e-5 1 -0.9973172 -0.06729 -0.0288186 -0.9211851 0.04530131 -0.3864787 -0.8927324 -0.003414213 -0.4505743 -0.5807697 0.004381775 -0.8140563 -0.5478514 -0.02883881 -0.8360785 -0.0663461 0.05260396 -0.9964091 0.05801934 -0.05260884 -0.9969284 0.5409458 0.02972298 -0.8405321 0.5744423 -0.003892242 -0.8185359 0.8897453 0.00392574 -0.4564405 0.8940562 -0.002730786 -0.4479468 0.9993349 0.003727436 -0.03627681 0.9982147 0.020392 -0.05613857 0.9171649 -0.03837007 0.3966568 0.8394755 0.05844724 0.5402454 0.6618457 -0.05414205 0.7476824 0.4295129 0.07055449 0.9003005 0.08625495 -0.07795441 0.9932187 -0.07831335 0.04265767 0.9960159 -0.5902401 -0.0280919 0.8067388 -0.5238376 0.06069266 0.8496533 -0.8507234 -0.06459289 0.5216297 -0.9585835 0.09996545 0.2666921 -0.03726077 0.999177 0.01603436 -0.06060624 0.9981194 0.009198844 -0.58173 0.8132615 0.01400053 -0.6142701 0.7890933 0.002077996 -0.9677629 0.2503216 0.02782475 -0.983499 0.1808931 0.002713978 -0.8479034 -0.5297882 0.01960456 -0.8491472 -0.5277591 0.02048146 -0.3914578 -0.9201961 -1.80112e-4 -0.2790805 -0.9597159 0.03255456 0.2237098 -0.9746422 -0.005175173 0.37651 -0.9259 0.03081244 0.6862168 -0.7273968 6.54646e-4 0.8404659 -0.5399861 0.04507994 0.9799582 -0.1985139 -0.01655679 0.9772302 0.2076448 0.04364663 0.9183874 0.3956495 -0.005106627 0.5905975 0.8066332 0.02318257 0.5483869 0.8361862 0.008041083 -0.4025788 0.915373 0.004766047 -0.4318608 0.9019318 -0.003931581 -0.8063453 0.5914312 0.004076898 -0.8234438 0.5673841 -0.003973007 -0.9986718 0.05127912 0.004995048 -0.9966314 0.08048653 0.01574915 -0.8747058 -0.4836867 -0.03060972 -0.7815234 -0.623483 0.02214574 -0.3870957 -0.9220278 0.004665315 -0.2799889 -0.9594748 -0.0318495 0.2631894 -0.9642252 0.03164076 0.4301602 -0.9023898 -0.02559542 0.8533505 -0.5211555 0.01378452 0.8967748 -0.4423485 -0.01107752 0.9987321 -0.04834067 0.01405316 0.9953219 0.09490633 -0.01808696 0.816365 0.5773012 0.01648133 0.777352 0.6290233 -0.007326841 0.171235 0.985206 0.006914198 0.136667 0.9905989 -0.006003797 -0.4025803 0.9153756 0.004080057 -0.4294187 0.9030968 -0.00397253 -0.8228297 0.5682701 0.004528343 -0.8405216 0.5417485 -0.005660891 -0.9999639 -0.006809711 0.005102753 -0.9915699 -0.1265076 -0.02802014 -0.8888298 -0.457396 0.02776122 -0.5912083 -0.8059116 -0.03129518 -0.4449856 -0.8952738 0.02174186 0.0361467 -0.9991975 -0.01726144 0.2631897 -0.9642251 0.03164553 0.4838069 -0.8749067 -0.02166503 0.8533508 -0.521155 0.01378583 0.8967771 -0.442344 -0.01107734 0.998732 -0.04834139 0.0140531 0.987173 0.1564329 -0.03191328 0.8156913 0.5768215 0.04387235 0.6153776 0.7874077 -0.03605043 0.1711999 0.9850074 0.02123826 0.07933616 0.99684 -0.003972947 -0.329461 0.9436683 -0.03075253 -0.47834 0.8779198 0.02116179 -0.8408601 0.5412217 0.005784869 -0.8978714 0.4391341 -0.03143769 -0.9997356 -0.00680536 0.02196466 -0.9531067 -0.3009473 -0.03191399 -0.8891044 -0.457538 0.01234638 -0.4450871 -0.8954786 -0.003959357 -0.4391768 -0.8983759 -0.006671786 0.2633155 -0.9646871 0.006625711 0.2969011 -0.9548757 -0.007889151 0.8534131 -0.5211962 0.006397485 0.8965434 -0.4423691 -0.02279609 0.9985798 -0.04833275 0.02241897 0.9709798 0.2374743 -0.02836328 0.8329156 0.5526757 0.0283035 0.7014523 0.7124868 -0.01808959 0.2543133 0.9669815 0.01648235 0.2516012 0.9677077 0.01545143 -0.2669137 0.9630515 -0.03590166 -0.4783061 0.8778556 0.02434659 -0.8407475 0.5411495 -0.01734608 -0.8064427 0.5912914 0.004960298 -0.9997577 0.01745015 -0.01342248 -0.9999657 -0.00680983 -0.004720091 -0.8888987 -0.4574326 0.02479201 -0.7430666 -0.6683918 -0.03323519 -0.4449124 -0.8951269 0.02830147 -0.2176436 -0.9756845 -0.02590936 0.2631842 -0.9642063 0.03225547 0.433013 -0.90103 -0.02539396 0.8533493 -0.5211575 0.01378619 0.9097002 -0.4148094 -0.01946771 0.9985797 -0.048334 0.02241873 0.9709786 0.237479 -0.02836388 0.8329157 0.5526758 0.02830225 0.7217982 0.6920059 -0.01163214 0.3592775 0.9332253 -0.003207325 0.2542262 0.9666517 0.03088033 -0.08186715 -0.9965723 0.01190364 -0.1244762 -0.9917799 -0.02963721 -0.398504 -0.9168618 0.02364927 -0.4322234 -0.9017454 -0.006174504 -0.6723812 -0.7393609 0.03533929 -0.6171189 -0.7867652 -0.01284623 -0.874696 -0.4832722 0.03681004 -0.8134443 -0.5805593 -0.03548675 -0.9837502 -0.1755645 0.03758692 -0.9553044 -0.2931295 -0.03832566 -0.9877741 0.1509689 0.0388683 -0.9990289 0.0245155 -0.03661054 -0.8862643 0.4614725 0.03973299 -0.9403824 0.337951 -0.03834247 -0.6899477 0.7227308 0.04040372 -0.7828367 0.6209784 -0.03940141 -0.4196277 0.9067515 0.04140609 -0.545312 0.8374169 -0.03698426 -0.09642225 0.9948672 0.03069186 -0.273913 0.9613279 -0.02864253 -0.04232108 0.9990513 -0.01027286 0.2637471 0.9641539 0.02906453 0.2255849 0.9742229 0.001091659 0.4251176 0.904668 -0.0291723 0.5624268 0.8258363 0.04087233 0.6748766 0.7369405 -0.03821384 0.7988592 0.6001771 0.04014408 0.8737591 0.484842 -0.03838485 0.9498016 0.3103745 0.03930151 0.9811083 0.1905602 -0.03336942 0.9994612 -0.0124849 0.03035742 0.9964025 -0.08293569 -0.01743245 0.9423827 -0.33409 0.01728737 0.9489114 -0.3155429 2.87888e-4 0.7844209 -0.619944 0.01879781 0.8111539 -0.5845271 -0.01891249 0.5428075 -0.8396203 0.01994681 0.5832011 -0.8120581 -0.02093505 0.2434869 -0.9698967 0.003818511 0.2718693 -0.9619789 -0.02615088 -0.2019126 -0.6945043 0.690576 -0.2024605 -0.7246813 0.6586705 0.3036103 -0.6369221 0.7086262 0.3319197 -0.6677973 0.6662402 0.6320933 -0.309873 0.7102372 -0.6263429 -0.3434107 0.6998313 -0.6055535 -0.3225904 0.7274891 -0.3021262 0.6244367 0.7202767 -0.4815587 0.7617047 0.4334827 -0.4210243 0.2900995 0.8594072 -0.9497827 0.07605302 0.3035272 -0.7364782 0.1137901 0.6668221 0.8681601 -0.3225936 0.3771359 0.5026693 0.04637432 0.8632341 0.7722884 0.6245587 0.116177 0.6338115 0.43765 0.6377661 0.09679746 0.6978331 0.7096895 0.08864212 0.7479825 0.6577727 0.9028241 0.1415347 0.40605 0.5870016 0.02624952 0.8091601 0.7142198 0.6009842 0.3587591 0.3349161 0.4334068 0.8366539 0.2971208 -0.5368006 0.7896611 0.7150612 -0.5972591 0.3632756 0.5007245 -0.2447435 0.8302865 -0.3262932 -0.446795 0.8330107 -0.4136566 -0.8363142 0.3598148 0.02124226 -0.5938892 0.8042664 0.2202106 -0.8283915 0.5150485 0.0699796 0.8681 0.4914318 0.08088296 0.8204123 0.5660226 -0.2634853 0.5541028 0.7896491 -0.5365962 0.7269616 0.4284756 -0.4670204 0.3018916 0.8311158 -0.8599448 0.2429332 0.4488638 -0.5534918 -0.06942552 0.8299561 -0.8099218 -0.2415378 0.5344963 -0.2252516 -0.4729946 0.8517852 0.2721372 -0.8768594 0.3963067 0.1963371 -0.7441244 0.6385379 0.6341478 -0.3119099 0.7075089 0.6794971 -0.3207229 0.6598641 0.6833254 0.1689448 0.7102986 -0.4981932 0.2376514 0.8338617 -0.1078873 0.2334914 0.9663552 -0.926056 -0.07940721 0.3689374 -0.5235501 -0.1598021 0.8368744 -0.6331382 -0.7648019 0.1192226 -0.6190549 0.495487 0.6093142 0.8247814 0.2686605 0.4975511 0.385493 0.389397 0.8365197 0.4025282 0.8503807 0.3388568 0.1593105 0.6127361 0.7740637 -0.2556242 0.7471138 0.6135774 -0.17369 0.6196223 0.7654411 0.4324229 0.410391 0.8028635 0.4648431 0.6527944 0.5981475 0.2991063 -0.6149542 0.7296348 0.3416693 -0.6594886 0.6695797 0.6419746 -0.2927278 0.708646 0.6835811 -0.2981953 0.6661805 0.6833333 0.1689506 0.7102896 0.7521989 0.2145709 0.6230217 -0.8590262 0.1574773 0.487109 -0.5710531 0.01285213 0.8208126 -0.7510114 -0.5203171 0.4065124 -0.4641982 -0.4198656 0.7798928 -0.1729063 -0.7582374 0.6286331 -0.1739064 -0.7441028 0.6450331 0.201514 0.5241109 0.827466 -0.07603889 0.9337602 0.3497288 -0.155833 0.5622578 0.8121467 -0.6039707 0.6104422 0.5124255 -0.4912998 0.3578518 0.7940822 0.1516176 0.6485369 0.7459304 0.2967574 0.689143 0.6610726 0.2994488 0.6306489 0.7159696 0.4971657 0.5347449 0.683282 0.5067672 0.5551139 0.6595724 0.5515819 0.3060857 0.7759311 0.7985413 0.302477 0.5204226 0.6140711 0.1162671 0.78064 0.7409582 -0.05748897 0.669086 0.7624605 -0.0677213 0.6434811 0.6204803 -0.2075673 0.7562539 0.7059714 -0.334996 0.6240049 0.5147321 -0.3708818 0.7729797 0.5642204 -0.5450149 0.6201727 0.3645367 -0.5096303 0.7793523 0.3517527 -0.6851506 0.6378392 0.1695865 -0.5936535 0.7866486 0.1273257 -0.7626155 0.6341969 -0.09386152 -0.6670568 0.7390706 -0.08742785 -0.7007957 0.7079844 -0.3171522 -0.6476377 0.692806 -0.3181695 -0.6623615 0.6782665 -0.4126174 -0.5270197 0.7429652 -0.5568218 -0.5620627 0.6115841 -0.5223908 -0.3696168 0.7684344 -0.7063081 -0.3517829 0.6143107 -0.602104 -0.1883895 0.7758737 -0.8177484 -0.07431465 0.5707582 -0.6411544 0.01817327 0.7671968 -0.7063322 0.2538468 0.6608002 -0.6859358 0.2383627 0.6875138 -0.5433658 0.4282768 0.7220337 -0.5554541 0.4495442 0.6995576 -0.4005051 0.6024687 0.6903819 -0.3803397 0.5880813 0.7137942 -0.1925145 0.6711378 0.7158997 -0.1841482 0.7168988 0.6724177 -0.02917939 0.6604241 0.7503257 0.05756258 0.7932397 0.6061828 -0.9980106 -2.03375e-4 -0.06304794 -0.8927378 0.001191139 -0.4505751 -0.8909221 -0.001643896 -0.4541532 -0.5480781 0.003116428 -0.8364214 -0.5678854 0.02691483 -0.8226676 -0.1111271 -0.03894603 -0.9930428 0.05799764 0.05910086 -0.9965658 0.2229917 -0.01140445 -0.9747537 0.5739728 0.04073011 -0.8178608 0.6217896 -0.001416623 -0.783183 0.8940554 0.002594232 -0.4479491 0.8958309 -2.04188e-4 -0.444395 0.9984216 0.001191377 -0.05614978 0.9596744 0.1365522 -0.2457203 0.9551824 -0.06013864 0.2898449 0.9176099 0.02241551 0.3968496 0.6625903 0.02656936 0.7485107 0.6162998 -0.02464556 0.7871259 0.254808 -0.02262008 0.9667271 0.08627015 0.07612025 0.9933596 -0.1522208 -0.05951213 0.9865531 -0.523853 0.06014317 0.8496829 -0.6677857 -0.04089039 0.7432297 -0.8517414 0.04227793 0.5222542 -0.9197583 -0.04218393 0.3902118 -0.9992978 0.02387785 -0.0288757 0.006689071 0.01612085 0.9998477 0.001815795 0.02502286 0.9996853 0.005356967 0.03449797 0.9993905 -0.006875932 0.005575537 0.9999609 0.01261651 -0.004707694 0.9999094 0.008132338 0.007966101 0.9999352 0.00710386 -0.01542973 0.9998558 -0.007700681 -0.001393437 0.9999695 -0.008696138 0.002795517 0.9999583 0.02284866 -0.02626246 0.9993939 0.005035221 -0.02354031 0.9997103 0.01478046 -0.02801269 0.9994984 -0.006636977 -0.01804023 0.9998152 -0.002414882 -0.04543453 0.9989644 -0.01310139 -0.01591962 0.9997875 -0.01511424 -0.01321929 0.9997985 9.57335e-4 4.24249e-4 0.9999995 -6.86653e-4 2.19142e-4 0.9999998 -2.60919e-5 -1.32788e-5 1 6.19225e-4 5.91979e-4 0.9999997 5.72169e-4 3.10764e-4 0.9999998 -0.01708239 -0.01692134 0.999711 0.001663804 -2.52187e-4 0.9999986 -2.71749e-4 3.82581e-4 0.9999999 -0.001307725 -0.001065075 0.9999986 -0.001319289 -4.33069e-4 0.9999991 0.01137638 -0.00450474 0.9999252 -0.007436454 -0.003839135 0.999965 2.01217e-4 -5.15872e-4 0.9999999 -3.63314e-4 4.63325e-4 0.9999998 -4.82772e-4 -2.46196e-4 1 -2.97191e-4 2.63507e-4 1 9.42817e-5 -1.15299e-5 1 -1.97389e-5 2.30427e-4 1 -2.26482e-4 7.19249e-5 1 -0.001839101 6.63942e-5 0.9999983 5.8653e-4 -7.90267e-4 0.9999996 4.72074e-4 -8.64136e-4 0.9999995 -1.04498e-5 -3.00311e-4 1 0.005194485 -0.005391359 0.999972 0.00305593 -0.003127515 0.9999905 5.71517e-4 -2.11239e-4 0.9999998 6.04946e-4 -2.88255e-4 0.9999998 3.82299e-4 -5.39383e-5 1 0.002624034 8.9155e-4 0.9999962 -0.01432234 0.01152724 0.9998311 -1.11743e-4 5.18444e-4 1 -1.82592e-4 5.10686e-4 1 -0.05491155 0.06391149 0.9964437 9.51181e-5 -4.19887e-4 1 -5.24195e-4 1.20622e-5 0.9999999 -7.36379e-4 3.97148e-4 0.9999997 -3.76444e-4 9.69849e-5 1 -0.001159012 0.004276931 0.9999902 5.66683e-4 -1.55769e-4 0.9999998 1.34362e-4 -2.28777e-4 1 9.79714e-4 -5.73073e-5 0.9999996 7.46948e-4 -5.66761e-4 0.9999996 0.002047598 -6.81474e-4 0.9999977 5.27592e-4 -3.28477e-4 0.9999999 -2.41626e-4 -9.24673e-5 1 1.71634e-4 4.61734e-4 0.9999999 -5.42725e-4 5.83646e-4 0.9999998 9.42307e-5 -2.63623e-5 1 4.40105e-5 -1.84843e-5 1 2.71174e-5 1.79622e-5 1 3.63348e-4 7.69527e-4 0.9999997 -1.81665e-4 6.32976e-5 1 -3.33993e-4 -8.75833e-4 0.9999997 0.01369613 0.0131185 0.9998202 3.63891e-4 -1.9016e-4 1 4.82823e-4 2.32506e-4 0.9999999 5.20552e-5 -7.38703e-5 1 0.04572045 0.04637342 0.9978774 2.94982e-5 1.29586e-4 1 -5.86938e-4 -5.15343e-4 0.9999998 1.39802e-4 1.64957e-4 1 2.26108e-4 2.03386e-5 1 -1.29745e-5 3.73813e-5 1 -5.18315e-5 2.53036e-5 1 -2.84661e-5 2.3072e-4 1 0.001532733 9.54943e-4 0.9999984 2.1045e-4 5.83756e-4 0.9999998 -7.61369e-5 1.5517e-4 1 1.60332e-4 8.85288e-4 0.9999997 1.59135e-4 9.3533e-4 0.9999996 -0.2389612 0.7276923 0.6429319 -0.3765068 0.6253278 0.683526 -0.3091093 0.5603023 0.7684484 -0.4777585 0.5129383 0.7131908 -0.4549492 0.4629774 0.7607057 -0.6123379 0.06517595 0.7879052 -0.8374754 0.2969418 0.4587597 -0.4944086 0.2767482 0.8239968 -0.6267977 0.4589079 0.629705 -0.6260427 0.07007467 0.7766339 -0.774378 -0.06155771 0.6297218 -0.5551717 -0.1131168 0.8240079 -0.8282591 -0.321787 0.4587376 -0.4585564 -0.3487284 0.8173829 -0.5892875 -0.4142956 0.6936134 -0.2015523 -0.5890969 0.7825226 -0.4899626 -0.7004587 0.5189357 -0.3995752 -0.461809 0.791879 -0.2306128 -0.6407822 0.7322677 -0.01213544 -0.7256514 0.6879555 0.01014125 -0.6268498 0.7790741 0.2095794 -0.7768512 0.5937833 0.2038791 -0.5694394 0.7963492 0.4419316 -0.6467244 0.6216464 0.3962439 -0.5366266 0.7449983 0.7778787 -0.1121528 0.6183257 0.6132764 -0.228702 0.7560342 0.6636216 -0.2664251 0.6990165 0.5668943 -0.405707 0.7169609 0.5967877 -0.4450613 0.6676563 0.4557526 -0.446053 0.7702768 0.6585549 0.3997743 0.6375626 0.6069874 0.2068154 0.767329 0.6034573 0.2063803 0.770225 0.8333425 0.07582914 0.5475311 0.6010791 -0.02720803 0.7987263 0.5230241 0.4421586 0.7286574 0.4889494 0.383324 0.7835759 0.4340736 0.5532307 0.7109965 0.4215987 0.5240057 0.7400491 0.3956622 0.7037394 0.5900866 -0.130989 0.6135628 0.7787057 -0.1138488 0.7035728 0.7014442 0.03695249 0.6962831 0.7168155 0.03926134 0.7035243 0.709586 0.209134 0.7014228 0.681373 0.2034359 0.5561007 0.8058325 0.1870668 0.9815284 -0.04010158 0.2872874 0.9570811 0.03823322 0.4123923 0.9101482 -0.03953319 0.4877715 0.8725991 0.02549356 0.6202072 0.7842071 -0.01903671 0.6321098 0.7739072 -0.03879511 0.7606344 0.6476836 0.04406094 0.8541128 0.5175493 -0.05132383 0.8416937 0.5398468 -0.01082682 0.9461609 0.3235858 0.008479177 0.9566513 0.2887589 -0.03790432 0.9944401 0.09183955 0.05152183 0.998308 -0.02242839 -0.05364924 0.98877 -0.1442536 0.03904891 0.9610403 -0.2734839 -0.04010379 0.927293 -0.372282 0.03916424 0.8581689 -0.5105826 -0.05340188 0.8014608 -0.5949366 0.06091833 0.6570093 -0.7514102 -0.06100642 0.561203 -0.8244779 0.07271552 0.4466614 -0.8932183 -0.05152416 0.2594389 -0.9651419 0.03453421 0.224636 -0.9743838 -0.01072269 -0.0141775 -0.9998255 0.01216912 -0.01050502 -0.9997816 0.01806992 -0.2448701 -0.9686948 -0.04085677 -0.3245125 -0.9444636 0.05177164 -0.4655765 -0.8840986 -0.04010212 -0.5711375 -0.8190744 0.0540294 -0.675574 -0.7337204 -0.07248705 -0.7961603 -0.601005 0.07015734 -0.8709963 -0.4883723 -0.0534597 -0.930262 -0.3632401 0.05166602 -0.965999 -0.2530792 -0.05288541 -0.996609 -0.07637941 0.03060775 -0.9989514 0.00322014 -0.04566997 -0.9936941 0.1069013 0.03382664 -0.9429658 0.3322608 -0.02044987 -0.9494579 0.3134117 0.01740646 -0.8268268 0.5608015 -0.04311805 -0.8050472 0.5930011 0.01577562 -0.682767 0.7299538 0.0315693 -0.5932732 0.8016138 -0.07377111 -0.5121015 0.8581081 0.03745013 -0.3147985 0.949105 -0.01008987 -0.2987533 0.953815 -0.03135901 -0.1588272 0.9869599 0.02615916 -0.04870241 0.9980081 -0.04010176 0.05567646 0.9976807 0.0391618 0.840121 0.5026998 -0.2036902 0.008754491 0.9999523 -0.00434482 0.02089041 0.9983076 -0.05427289 0.05909192 0.9856802 -0.1579326 -9.50721e-4 0.9999634 -0.008504927 -0.009190917 0.999646 -0.02496993 -0.003044724 0.9999858 -0.004397988 -0.02031421 0.9996455 -0.0172097 -0.007576525 0.9999639 -0.003859281 -0.03877729 0.9992449 -0.002447247 -0.01680952 0.9998571 -0.001794219 -0.006181955 0.9999775 0.002625763 -0.02375173 0.9995956 0.01563692 -0.004324853 0.9999791 0.004807591 -0.04353421 0.9938454 0.1018642 -0.00113058 0.9999726 0.007324934 0.007209241 0.9995989 0.02738863 0.00860691 0.9994589 0.03174799 0.004986047 0.9999673 0.006365418 0.1017041 0.9918761 0.07640808 -0.01461154 0.9997956 -0.01397484 1.48541e-4 3.93122e-5 1 1.60848e-4 4.93888e-5 1 1.11483e-4 6.26584e-5 1 9.98582e-5 2.50565e-5 1 2.83777e-5 2.99451e-5 1 8.02445e-5 2.66053e-4 1 1.54505e-4 2.91262e-4 1 1.05085e-4 4.11846e-4 1 1.06371e-4 1.7651e-4 1 -2.2273e-4 -2.72562e-4 1 -2.28078e-4 -1.72863e-4 1 -1.56296e-5 -3.79437e-5 1 1.8418e-5 -7.93595e-5 1 -2.69027e-5 -1.33539e-4 1 7.13097e-6 -1.43966e-4 1 1.10713e-5 -1.51138e-4 1 3.86596e-5 -1.25257e-4 1 -1.0049e-5 -7.70628e-5 1 2.22421e-6 1.55608e-4 1 -8.22176e-5 3.11089e-4 1 -7.63329e-5 3.27668e-4 1 -1.70072e-4 3.44631e-4 1 5.51727e-5 1.19516e-4 1 -2.60745e-5 3.22235e-5 1 -2.91909e-4 1.65735e-4 1 -2.91935e-4 1.72597e-4 1 9.46098e-5 3.58371e-5 1 2.20947e-4 -3.00679e-4 1 2.94707e-4 -2.00494e-4 1 1.58921e-4 -1.6821e-4 1 1.28134e-4 -4.0543e-5 1 6.14602e-5 -5.27002e-5 1 4.59337e-5 -1.34787e-7 1 1.46141e-4 4.80353e-5 1 -4.29034e-4 1.84561e-4 0.9999999 -3.59865e-4 1.01184e-4 1 -4.10527e-4 9.24706e-6 1 -1.95315e-4 7.0098e-5 1 -1.34145e-4 -3.92343e-5 1 -1.41606e-4 -5.05139e-5 1 -1.13908e-4 -7.06713e-5 1 -2.24344e-4 -2.73528e-4 1 -0.01440376 0.7281396 0.6852776 0.001474678 0.705601 0.7086079 3.97761e-4 0.7061483 0.7080639 2.96073e-4 0.707091 0.7071225 -6.24308e-4 0.7107956 0.7033983 6.42447e-4 0.7072343 0.706979 -4.41804e-4 0.7077855 -0.7064273 -4.98616e-4 0.7071235 -0.70709 -8.90445e-4 0.7050469 -0.7091602 4.55324e-4 0.7090999 -0.7051079 0.001388669 0.710936 -0.7032554 0.01216912 0.7260168 -0.6875693 0.1132947 0.7260001 0.6782981 0.1584907 0.6452655 0.7473374 0.2535991 0.6843456 0.6836364 0.3330067 0.5936698 0.7325728 0.3237179 0.5878399 0.7413846 0.5112478 0.5848798 0.6297154 0.4882602 0.3970891 0.7771244 0.6356355 0.4017114 0.6592387 0.6395823 0.2252368 0.7349849 0.65452 0.2228729 0.7224482 0.7343969 0.08225703 0.6737173 0.641074 -0.002384841 0.7674754 0.7391996 -0.07799029 0.6689555 0.6922082 -0.2307604 0.6838111 0.5703912 -0.2533089 0.7813377 0.6381313 -0.3811681 0.668954 0.5223546 -0.5089169 0.6842145 0.4552733 -0.4853126 0.746457 0.3310897 -0.6619912 0.672419 0.3242359 -0.6048623 0.7273327 0.1380606 -0.7399273 0.6583669 0.05571603 -0.6391046 0.7670993 -0.03792893 -0.7438547 0.6672644 -0.1826021 -0.6482454 0.739212 -0.1753214 -0.6394564 0.7485706 -0.3735526 -0.6811717 0.6296537 -0.390863 -0.5090448 0.7668765 -0.5527222 -0.5283473 0.6444745 -0.5285154 -0.3963279 0.7507302 -0.6796026 -0.3327224 0.6537861 -0.617332 -0.2174009 0.7560676 -0.7268995 -0.1624513 0.6672531 -0.682321 -0.02047437 0.7307659 -0.729997 0.01027649 0.6833732 -0.6500315 0.1475408 0.7454468 -0.7176609 0.2243854 0.6592527 -0.575748 0.3493437 0.7392384 -0.5692558 0.3400174 0.748556 -0.5587466 0.5258739 0.6412947 -0.3987228 0.5298115 0.7485452 -0.4003404 0.5664267 0.7203391 -0.3207811 0.6551397 0.684026 -0.2439287 0.6240524 0.7423324 -0.185457 0.7242544 0.6641245 -0.04540729 0.6691923 0.7417007 -0.0313431 0.6973544 0.7160409 -3.21346e-6 0 -1 0 0 -1 -3.55556e-6 0 -1 -6.18251e-6 0 -1 1.07559e-5 0 -1 -1.02198e-6 0 -1 -4.15704e-6 0 -1 2.0263e-6 0 -1 -1.67412e-4 5.11744e-4 -1 -3.11095e-4 7.14732e-4 -0.9999998 -2.35104e-4 7.53969e-4 -0.9999998 -2.434e-4 8.03699e-4 -0.9999997 -1.03282e-4 5.38908e-4 -1 -4.90525e-5 6.00646e-4 -0.9999998 -4.08367e-5 6.99182e-4 -0.9999998 1.19569e-5 4.10024e-4 -1 5.28489e-5 3.84811e-4 -1 1.64278e-4 6.30354e-4 -0.9999999 1.72178e-4 6.7357e-4 -0.9999998 1.86635e-4 4.91535e-4 -1 3.05788e-4 6.01042e-4 -0.9999998 -2.80476e-4 -2.70655e-4 -1 -3.12172e-4 -4.7714e-4 -0.9999999 -4.58267e-4 -5.53581e-4 -0.9999998 -2.66408e-4 -3.80284e-4 -1 2.00863e-6 0 -1 -3.90189e-6 0 -1 6.76221e-6 0 -1 7.33538e-6 0 -1 7.55456e-6 0 -1 -7.45812e-6 0 -1 -8.81721e-6 0 -1 -1.86642e-6 0 -1 2.43049e-7 0 -1 5.71174e-6 0 -1 1.81573e-6 0 -1 2.58926e-5 0 -1 -2.68519e-5 0 -1 8.70253e-6 0 -1 4.28647e-4 0.9999999 -4.16186e-4 4.53648e-4 0.9999998 -2.63558e-4 -1.86398e-6 0.9999586 -0.009094893 -5.8634e-4 0.9999998 -1.91223e-5 4.45344e-4 0.9999998 -2.7675e-4 2.88092e-6 0.9999539 0.00960505 -0.01049011 0.9998501 -0.01378273 0.001702606 0.9999586 0.008934855 -3.4272e-4 0.9999987 -0.001621305 4.88927e-4 0.9999999 -4.47618e-4 0.00147444 0.999154 0.04110032 -0.004766941 0.9998634 -0.01582854 -5.57365e-4 1 1.07338e-5 0.003806531 0.999984 0.004184067 4.28846e-4 1 -4.75394e-6 -0.4509497 0.8923567 -0.01854336 -0.4382829 0.8988032 0.007822573 -0.3889799 0.9212442 -0.002001702 -0.2469229 0.9689531 0.01260673 -0.2939448 0.9558216 -0.001203358 -0.1807515 0.9835135 -0.005491912 -0.04382032 0.9990387 0.001204609 -0.02725774 0.9995694 0.01087093 0.1419987 0.9898421 0.007011532 0.1537168 0.988115 2.47234e-4 0.3904559 0.9206212 -9.94122e-4 0.3439626 0.9389427 0.008736789 0.2884148 0.9574914 -0.005224525 0.4484491 0.893638 -0.0174548 0.4718751 0.8816653 4.73222e-4 0.3798751 0.9250065 0.007611811 0.2347447 0.971112 -0.0428543 0.2567108 0.9663596 -0.01577061 0.1374399 0.9902421 0.02304124 0.01802092 0.9997197 0.01535636 -0.03769594 0.9979371 -0.05196851 -0.1327601 0.9908139 0.02574145 -0.2595014 0.9653548 -0.02737027 -0.3886396 0.9213782 0.004660367 -0.2864603 0.9580919 -5.91604e-4 0.4831946 0.8755127 -6.8504e-4 0.4766726 0.8790788 0.001977741 0.6582996 0.7527561 -1.46385e-4 0.6650985 0.7467507 -0.002725243 0.8451918 0.5344576 0.002451419 0.8534691 0.5211411 -0.001612067 0.946624 0.3223375 0.001260042 0.9506737 0.3101899 -0.00140208 0.993785 0.1113098 0.001260221 0.9969177 0.07825243 -0.00564295 0.9944511 -0.1049219 0.007659554 0.9779745 -0.2085725 -0.007968544 0.9486578 -0.3162505 0.005834162 0.8945488 -0.4468996 -0.007961213 0.8584913 -0.5127954 0.005796492 0.7160544 -0.6980374 -0.003146409 0.7165881 -0.6974906 -0.002907335 0.47245 -0.8813533 0.00277692 0.4741856 -0.8804185 0.003393828 0.2582449 -0.9660602 -0.006119251 0.1836729 -0.9829574 0.007682144 0.04455256 -0.9989892 -0.0059762 -0.050929 -0.9986853 0.005834221 -0.1913087 -0.9814977 -0.007959842 -0.2644078 -0.9643937 0.005794525 -0.4810537 -0.8766856 -0.003142714 -0.4803948 -0.8770475 -0.002907395 -0.722862 -0.6909869 0.002777636 -0.7214935 -0.6924129 0.003396272 -0.8617458 -0.5073033 -0.006121337 -0.8979997 -0.4399289 0.007683932 -0.9506566 -0.3101875 -0.005976319 -0.9759085 -0.2181028 0.005833864 -0.9951118 -0.09857356 -0.0059762 -0.999865 0.01435697 0.008003652 -0.9903905 0.137879 -0.01077741 -0.9544613 0.2981507 0.01048386 -0.9102696 0.4139394 -0.007968902 -0.8584987 0.5127827 0.005833804 -0.7902303 0.6127811 -0.005975723 -0.7281929 0.6853474 0.005834102 -0.6393229 0.7689146 -0.006065845 -0.5778285 0.8161493 0.003822684 -0.4720797 0.8815549 -0.001361012 -0.4745244 0.8802422 -6.02691e-4</float_array>
          <technique_common>
            <accessor source="#eSeries_UR5e_058-mesh-normals-array" count="859" stride="3">
              <param name="X" type="float"/>
              <param name="Y" type="float"/>
              <param name="Z" type="float"/>
            </accessor>
          </technique_common>
        </source>
        <vertices id="eSeries_UR5e_058-mesh-vertices">
          <input semantic="POSITION" source="#eSeries_UR5e_058-mesh-positions"/>
        </vertices>
        <polylist material="LinkGrey_002-material" count="911">
          <input semantic="VERTEX" source="#eSeries_UR5e_058-mesh-vertices" offset="0"/>
          <input semantic="NORMAL" source="#eSeries_UR5e_058-mesh-normals" offset="1"/>
          <vcount>3 3 3 3 3 3 3 3 3 3 3 3 3 3 3 3 3 3 3 3 3 3 3 3 3 3 3 3 3 3 3 3 3 3 3 3 3 3 3 3 3 3 3 3 3 3 3 3 3 3 3 3 3 3 3 3 3 3 3 3 3 3 3 3 3 3 3 3 3 3 3 3 3 3 3 3 3 3 3 3 3 3 3 3 3 3 3 3 3 3 3 3 3 3 3 3 3 3 3 3 3 3 3 3 3 3 3 3 3 3 3 3 3 3 3 3 3 3 3 3 3 3 3 3 3 3 3 3 3 3 3 3 3 3 3 3 3 3 3 3 3 3 3 3 3 3 3 3 3 3 3 3 3 3 3 3 3 3 3 3 3 3 3 3 3 3 3 3 3 3 3 3 3 3 3 3 3 3 3 3 3 3 3 3 3 3 3 3 3 3 3 3 3 3 3 3 3 3 3 3 3 3 3 3 3 3 3 3 3 3 3 3 3 3 3 3 3 3 3 3 3 3 3 3 3 3 3 3 3 3 3 3 3 3 3 3 3 3 3 3 3 3 3 3 3 3 3 3 3 3 3 3 3 3 3 3 3 3 3 3 3 3 3 3 3 3 3 3 3 3 3 3 3 3 3 3 3 3 3 3 3 3 3 3 3 3 3 3 3 3 3 3 3 3 3 3 3 3 3 3 3 3 3 3 3 3 3 3 3 3 3 3 3 3 3 3 3 3 3 3 3 3 3 3 3 3 3 3 3 3 3 3 3 3 3 3 3 3 3 3 3 3 3 3 3 3 3 3 3 3 3 3 3 3 3 3 3 3 3 3 3 3 3 3 3 3 3 3 3 3 3 3 3 3 3 3 3 3 3 3 3 3 3 3 3 3 3 3 3 3 3 3 3 3 3 3 3 3 3 3 3 3 3 3 3 3 3 3 3 3 3 3 3 3 3 3 3 3 3 3 3 3 3 3 3 3 3 3 3 3 3 3 3 3 3 3 3 3 3 3 3 3 3 3 3 3 3 3 3 3 3 3 3 3 3 3 3 3 3 3 3 3 3 3 3 3 3 3 3 3 3 3 3 3 3 3 3 3 3 3 3 3 3 3 3 3 3 3 3 3 3 3 3 3 3 3 3 3 3 3 3 3 3 3 3 3 3 3 3 3 3 3 3 3 3 3 3 3 3 3 3 3 3 3 3 3 3 3 3 3 3 3 3 3 3 3 3 3 3 3 3 3 3 3 3 3 3 3 3 3 3 3 3 3 3 3 3 3 3 3 3 3 3 3 3 3 3 3 3 3 3 3 3 3 3 3 3 3 3 3 3 3 3 3 3 3 3 3 3 3 3 3 3 3 3 3 3 3 3 3 3 3 3 3 3 3 3 3 3 3 3 3 3 3 3 3 3 3 3 3 3 3 3 3 3 3 3 3 3 3 3 3 3 3 3 3 3 3 3 3 3 3 3 3 3 3 3 3 3 3 3 3 3 3 3 3 3 3 3 3 3 3 3 3 3 3 3 3 3 3 3 3 3 3 3 3 3 3 3 3 3 3 3 3 3 3 3 3 3 3 3 3 3 3 3 3 3 3 3 3 3 3 3 3 3 3 3 3 3 3 3 3 3 3 3 3 3 3 3 3 3 3 3 3 3 3 3 3 3 3 3 3 3 3 3 3 3 3 3 3 3 3 3 3 3 3 3 3 3 3 3 3 3 3 3 3 3 3 3 3 3 3 3 3 3 3 3 3 3 3 3 3 3 3 3 3 3 3 3 3 3 3 3 3 3 3 3 3 3 3 3 3 3 3 3 3 3 3 3 3 3 3 3 3 3 3 3 3 3 3 3 3 3 3 3 3 3 3 3 3 3 3 3 3 3 3 3 3 3 3 3 3 3 3 3 3 3 3 3 3 3 3 3 3 3 3 3 3 3 3 3 3 3 3 3 3 3 3 3 3 3 3 3 3 3 3 3 3 3 3 3 3 3 3 3 3 3 3 3 3 3 3 3 3 3 3 3 3 3 3 3 3 3 3 3 3 3 3 3 3 3 3 3 3 3 3 3 3 3 3 3 </vcount>
          <p>0 0 3 0 1 0 1 1 2 1 0 1 0 2 2 2 36 2 19 3 4 3 20 3 21 4 36 4 2 4 18 5 22 5 23 5 17 6 18 6 23 6 17 7 23 7 24 7 16 8 17 8 24 8 15 9 16 9 25 9 25 10 24 10 26 10 26 11 24 11 1 11 27 12 25 12 26 12 29 13 12 13 27 13 29 14 27 14 28 14 11 15 29 15 30 15 30 16 29 16 28 16 30 17 28 17 3 17 10 18 11 18 30 18 9 19 10 19 31 19 8 20 9 20 31 20 8 21 31 21 32 21 31 22 0 22 35 22 7 23 8 23 33 23 33 24 8 24 32 24 6 25 7 25 33 25 6 26 33 26 34 26 5 27 6 27 34 27 34 28 35 28 36 28 4 29 5 29 20 29 20 30 5 30 34 30 20 31 34 31 21 31 21 32 34 32 36 32 21 33 22 33 20 33 20 34 22 34 19 34 2 35 23 35 21 35 21 36 23 36 22 36 22 37 18 37 19 37 2 38 1 38 24 38 2 39 24 39 23 39 24 40 25 40 16 40 1 41 28 41 26 41 25 42 27 42 14 42 25 43 14 43 15 43 26 44 28 44 27 44 27 45 13 45 14 45 28 46 1 46 3 46 27 47 12 47 13 47 29 48 11 48 12 48 0 49 31 49 3 49 3 50 31 50 30 50 30 51 31 51 10 51 31 52 35 52 32 52 32 53 35 53 34 53 32 54 34 54 33 54 0 55 36 55 35 55 38 56 18 56 37 56 37 57 18 57 17 57 38 58 19 58 18 58 39 59 19 59 38 59 39 60 4 60 19 60 40 61 4 61 39 61 40 62 5 62 4 62 41 63 6 63 40 63 40 64 6 64 5 64 41 65 7 65 6 65 42 66 7 66 41 66 42 67 8 67 7 67 42 68 9 68 8 68 43 69 9 69 42 69 44 70 10 70 43 70 43 71 10 71 9 71 44 72 11 72 10 72 45 73 11 73 44 73 45 74 12 74 11 74 46 75 13 75 45 75 45 76 13 76 12 76 46 77 14 77 13 77 47 78 15 78 46 78 46 79 15 79 14 79 37 80 16 80 47 80 47 81 16 81 15 81 37 82 17 82 16 82 48 83 49 83 50 83 50 84 51 84 48 84 51 85 52 85 48 85 52 86 53 86 48 86 48 87 53 87 54 87 54 88 55 88 48 88 48 89 55 89 56 89 56 90 57 90 48 90 57 91 49 91 48 91 59 92 58 92 60 92 59 93 61 93 58 93 59 94 62 94 61 94 59 95 63 95 62 95 65 96 64 96 59 96 59 97 66 97 65 97 59 97 67 97 66 97 59 98 60 98 67 98 69 99 68 99 70 99 69 100 71 100 68 100 69 101 72 101 71 101 69 102 73 102 72 102 69 103 75 103 74 103 69 97 76 97 75 97 69 104 77 104 76 104 69 105 70 105 77 105 80 97 78 97 79 97 79 106 81 106 80 106 79 97 82 97 81 97 79 107 83 107 82 107 79 97 85 97 84 97 79 108 86 108 85 108 79 109 87 109 86 109 79 110 78 110 87 110 90 97 88 97 89 97 89 111 91 111 90 111 89 97 92 97 91 97 89 112 93 112 92 112 89 97 95 97 94 97 89 113 96 113 95 113 89 109 97 109 96 109 89 114 88 114 97 114 98 115 99 115 100 115 99 116 101 116 100 116 102 117 103 117 99 117 99 118 103 118 101 118 99 119 104 119 102 119 105 120 106 120 99 120 99 121 106 121 104 121 99 122 107 122 105 122 108 123 109 123 99 123 99 124 109 124 107 124 99 125 110 125 108 125 111 126 112 126 99 126 99 127 112 127 110 127 99 128 113 128 111 128 99 129 114 129 113 129 98 130 116 130 99 130 99 131 116 131 115 131 128 132 37 132 117 132 117 133 37 133 47 133 117 134 47 134 118 134 118 135 47 135 46 135 118 136 46 136 119 136 119 137 46 137 45 137 119 138 45 138 120 138 120 139 45 139 44 139 120 140 44 140 121 140 121 141 44 141 43 141 121 142 43 142 122 142 122 143 43 143 42 143 122 144 42 144 123 144 123 145 42 145 124 145 124 146 42 146 41 146 124 147 41 147 125 147 125 148 41 148 40 148 125 149 40 149 126 149 126 150 40 150 39 150 126 151 39 151 38 151 126 152 38 152 127 152 127 153 38 153 128 153 128 154 38 154 37 154 51 155 129 155 52 155 52 156 129 156 130 156 52 157 130 157 53 157 53 158 130 158 131 158 53 159 131 159 54 159 54 160 131 160 132 160 54 161 132 161 55 161 55 162 132 162 133 162 55 163 133 163 134 163 55 164 134 164 56 164 56 165 134 165 135 165 56 166 135 166 57 166 57 167 135 167 136 167 57 168 136 168 49 168 49 169 136 169 137 169 49 170 137 170 50 170 50 171 137 171 138 171 50 172 138 172 51 172 51 173 138 173 129 173 60 174 139 174 67 174 67 175 139 175 140 175 67 176 140 176 66 176 66 177 140 177 141 177 66 178 141 178 65 178 65 179 141 179 142 179 65 180 142 180 143 180 65 181 143 181 64 181 64 182 143 182 59 182 59 183 143 183 144 183 59 184 144 184 63 184 63 185 144 185 145 185 63 186 145 186 62 186 62 187 145 187 146 187 62 188 146 188 61 188 61 189 146 189 147 189 61 190 147 190 58 190 58 191 147 191 148 191 58 192 148 192 60 192 60 193 148 193 139 193 70 194 149 194 77 194 77 195 149 195 150 195 77 196 150 196 76 196 76 197 150 197 151 197 76 198 151 198 75 198 75 199 151 199 152 199 75 200 152 200 74 200 74 201 152 201 153 201 74 202 153 202 69 202 69 203 153 203 154 203 69 204 154 204 73 204 73 205 154 205 155 205 73 206 155 206 72 206 72 207 155 207 156 207 72 208 156 208 71 208 71 209 156 209 157 209 71 210 157 210 68 210 68 211 157 211 158 211 68 212 158 212 70 212 70 213 158 213 149 213 78 214 159 214 160 214 78 215 160 215 87 215 87 216 160 216 86 216 86 217 160 217 161 217 86 218 161 218 85 218 85 219 161 219 162 219 85 220 162 220 84 220 84 221 162 221 79 221 79 222 162 222 163 222 79 223 163 223 83 223 83 224 163 224 164 224 83 225 164 225 82 225 82 226 164 226 165 226 82 227 165 227 81 227 81 228 165 228 166 228 81 229 166 229 80 229 80 230 166 230 167 230 80 231 167 231 78 231 78 232 167 232 159 232 88 233 168 233 169 233 88 234 169 234 97 234 97 235 169 235 96 235 96 236 169 236 170 236 96 237 170 237 171 237 96 238 171 238 95 238 95 239 171 239 94 239 94 240 171 240 172 240 94 241 172 241 89 241 89 242 172 242 173 242 89 243 173 243 93 243 93 244 173 244 174 244 93 245 174 245 92 245 92 246 174 246 175 246 92 247 175 247 91 247 91 248 175 248 176 248 91 249 176 249 90 249 90 250 176 250 177 250 90 251 177 251 168 251 90 252 168 252 88 252 178 253 98 253 100 253 100 254 179 254 178 254 101 255 179 255 100 255 101 256 180 256 179 256 103 257 181 257 101 257 101 258 181 258 180 258 102 259 182 259 103 259 103 260 182 260 181 260 104 261 183 261 102 261 102 262 183 262 182 262 106 263 184 263 104 263 104 264 184 264 183 264 105 265 185 265 106 265 106 266 185 266 184 266 107 267 186 267 105 267 105 268 186 268 185 268 109 269 187 269 107 269 107 270 187 270 186 270 108 271 188 271 109 271 109 272 188 272 187 272 108 273 189 273 188 273 110 274 190 274 108 274 108 275 190 275 189 275 110 276 191 276 190 276 112 277 191 277 110 277 112 278 192 278 191 278 111 279 192 279 112 279 111 280 193 280 192 280 113 281 193 281 111 281 113 282 194 282 193 282 114 283 194 283 113 283 114 284 195 284 194 284 99 285 196 285 114 285 114 286 196 286 195 286 115 287 197 287 99 287 99 288 197 288 196 288 116 289 198 289 115 289 115 290 198 290 197 290 98 291 178 291 116 291 116 292 178 292 198 292 143 293 201 293 144 293 144 294 201 294 199 294 144 295 199 295 145 295 145 296 199 296 200 296 145 297 200 297 146 297 142 298 203 298 143 298 143 299 203 299 201 299 139 300 206 300 140 300 140 301 206 301 202 301 140 302 202 302 141 302 141 303 202 303 142 303 142 304 202 304 203 304 200 305 204 305 146 305 146 306 204 306 147 306 147 307 204 307 148 307 148 308 204 308 205 308 148 309 205 309 139 309 139 310 205 310 206 310 156 311 210 311 157 311 157 312 210 312 207 312 157 313 207 313 208 313 157 314 208 314 158 314 154 315 209 315 155 315 155 316 209 316 210 316 155 317 210 317 156 317 152 318 211 318 153 318 153 319 211 319 212 319 153 320 212 320 154 320 154 321 212 321 209 321 158 322 208 322 149 322 149 323 208 323 213 323 149 324 213 324 150 324 150 325 213 325 214 325 150 326 214 326 151 326 151 327 214 327 215 327 151 328 215 328 152 328 152 329 215 329 211 329 162 330 216 330 163 330 163 331 216 331 164 331 164 332 216 332 217 332 164 333 217 333 165 333 165 334 217 334 218 334 165 335 218 335 166 335 160 336 219 336 161 336 161 337 219 337 220 337 161 338 220 338 221 338 161 339 221 339 162 339 162 340 221 340 216 340 160 341 222 341 219 341 218 342 223 342 166 342 166 343 223 343 167 343 167 344 223 344 224 344 167 345 224 345 159 345 159 346 224 346 160 346 160 347 224 347 222 347 176 348 225 348 177 348 177 349 225 349 226 349 173 350 232 350 174 350 174 351 232 351 227 351 174 352 227 352 175 352 175 353 227 353 228 353 175 354 228 354 176 354 176 355 228 355 225 355 170 356 229 356 230 356 170 357 230 357 171 357 171 358 230 358 231 358 171 359 231 359 172 359 172 360 231 360 173 360 173 361 231 361 232 361 177 362 226 362 168 362 168 363 226 363 233 363 168 364 233 364 169 364 169 365 233 365 229 365 169 366 229 366 170 366 189 367 190 367 234 367 234 368 190 368 235 368 235 369 190 369 191 369 235 370 191 370 236 370 191 371 192 371 236 371 192 372 193 372 236 372 236 373 193 373 237 373 193 374 194 374 237 374 237 375 194 375 195 375 237 376 195 376 238 376 195 377 196 377 238 377 238 378 196 378 239 378 196 379 197 379 239 379 239 380 197 380 240 380 240 381 197 381 198 381 240 382 198 382 241 382 198 383 178 383 241 383 241 384 178 384 242 384 242 385 178 385 243 385 178 386 179 386 243 386 243 387 179 387 244 387 244 388 179 388 180 388 180 389 181 389 244 389 244 390 181 390 245 390 181 391 182 391 245 391 245 392 182 392 246 392 246 393 182 393 183 393 246 394 183 394 247 394 247 395 183 395 184 395 247 396 184 396 185 396 247 397 185 397 248 397 248 398 185 398 186 398 248 399 186 399 249 399 249 400 186 400 250 400 250 401 186 401 187 401 250 402 187 402 188 402 250 403 188 403 251 403 251 404 188 404 189 404 251 405 189 405 234 405 252 406 117 406 253 406 253 407 117 407 118 407 253 408 118 408 254 408 254 409 118 409 119 409 254 410 119 410 255 410 255 411 119 411 256 411 256 412 119 412 120 412 256 413 120 413 257 413 257 414 120 414 121 414 257 415 121 415 258 415 258 416 121 416 122 416 258 417 122 417 259 417 259 418 122 418 123 418 259 419 123 419 260 419 260 420 123 420 261 420 261 421 123 421 124 421 261 422 124 422 125 422 261 423 125 423 262 423 262 424 125 424 263 424 263 425 125 425 126 425 263 426 126 426 264 426 264 427 126 427 127 427 264 428 127 428 265 428 265 429 127 429 128 429 265 430 128 430 252 430 252 431 128 431 117 431 211 432 129 432 138 432 204 433 130 433 129 433 204 434 129 434 211 434 204 435 131 435 130 435 137 436 266 436 211 436 137 437 211 437 138 437 266 438 137 438 136 438 268 439 132 439 131 439 268 440 131 440 204 440 135 441 269 441 136 441 136 442 269 442 266 442 134 443 269 443 135 443 270 444 132 444 268 444 134 445 270 445 269 445 134 446 133 446 270 446 270 447 133 447 132 447 205 448 245 448 246 448 205 449 246 449 206 449 206 450 246 450 247 450 245 451 205 451 244 451 244 452 205 452 204 452 203 453 271 453 201 453 206 454 247 454 202 454 202 455 247 455 272 455 203 456 202 456 271 456 271 457 202 457 272 457 200 458 268 458 204 458 268 459 199 459 201 459 200 460 199 460 268 460 213 461 208 461 273 461 215 462 214 462 240 462 240 463 214 463 239 463 273 464 237 464 213 464 239 465 214 465 213 465 239 466 213 466 238 466 238 467 213 467 237 467 209 468 212 468 267 468 267 469 212 469 266 469 266 470 212 470 211 470 274 471 210 471 209 471 274 472 209 472 267 472 273 473 208 473 275 473 275 474 208 474 207 474 275 475 207 475 274 475 274 476 207 476 210 476 222 477 224 477 276 477 276 478 224 478 223 478 276 479 223 479 277 479 220 480 219 480 222 480 247 481 216 481 272 481 272 482 216 482 278 482 278 483 216 483 221 483 278 484 221 484 279 484 279 485 221 485 220 485 277 486 223 486 218 486 250 487 218 487 249 487 249 488 218 488 217 488 249 489 217 489 248 489 248 490 217 490 247 490 247 491 217 491 216 491 281 492 229 492 233 492 281 493 233 493 280 493 280 494 233 494 226 494 273 495 232 495 237 495 237 496 232 496 236 496 236 497 232 497 231 497 277 498 230 498 229 498 236 499 231 499 235 499 235 500 231 500 230 500 225 501 228 501 282 501 282 502 228 502 227 502 282 503 227 503 273 503 273 504 227 504 232 504 280 505 226 505 225 505 281 506 277 506 229 506 235 507 230 507 277 507 235 508 277 508 234 508 218 509 250 509 277 509 250 510 251 510 277 510 277 511 251 511 234 511 241 512 211 512 240 512 240 513 211 513 215 513 244 514 204 514 243 514 211 515 241 515 242 515 211 516 242 516 204 516 204 517 242 517 243 517 283 518 266 518 284 518 285 519 267 519 283 519 283 520 267 520 266 520 286 521 267 521 285 521 286 522 274 522 267 522 287 523 275 523 288 523 288 524 275 524 289 524 289 525 275 525 274 525 289 526 274 526 286 526 287 527 273 527 275 527 287 528 290 528 273 528 273 529 290 529 282 529 282 530 290 530 291 530 282 531 291 531 292 531 282 532 292 532 225 532 293 533 280 533 294 533 294 534 280 534 292 534 292 535 280 535 225 535 293 536 281 536 280 536 281 537 293 537 295 537 281 538 295 538 277 538 277 539 295 539 296 539 277 540 296 540 276 540 276 541 296 541 297 541 276 542 297 542 222 542 298 543 278 543 299 543 299 544 278 544 279 544 299 545 279 545 300 545 300 546 279 546 220 546 300 547 220 547 297 547 297 548 220 548 222 548 301 549 271 549 302 549 302 550 271 550 272 550 302 551 272 551 303 551 303 552 272 552 298 552 298 553 272 553 278 553 304 554 201 554 301 554 301 555 201 555 271 555 305 556 268 556 304 556 304 557 268 557 201 557 306 558 268 558 305 558 284 559 266 559 269 559 284 560 269 560 307 560 307 561 269 561 270 561 307 562 270 562 308 562 308 563 270 563 306 563 306 564 270 564 268 564 309 565 308 565 310 565 310 566 308 566 306 566 310 567 306 567 311 567 311 568 306 568 305 568 311 569 305 569 304 569 311 570 304 570 312 570 312 571 304 571 301 571 312 572 301 572 302 572 312 573 302 573 313 573 313 574 302 574 303 574 313 575 303 575 314 575 314 576 303 576 298 576 314 577 298 577 315 577 315 578 298 578 299 578 315 579 299 579 316 579 316 580 299 580 300 580 316 581 300 581 317 581 317 582 300 582 297 582 317 583 297 583 318 583 318 584 297 584 296 584 318 585 296 585 319 585 319 586 296 586 295 586 319 587 295 587 320 587 320 588 295 588 293 588 320 589 293 589 321 589 321 590 293 590 322 590 322 591 293 591 294 591 322 592 294 592 323 592 323 593 294 593 292 593 323 594 292 594 324 594 324 595 292 595 291 595 324 596 291 596 325 596 325 597 291 597 290 597 325 598 290 598 326 598 326 599 290 599 287 599 326 600 287 600 327 600 327 601 287 601 288 601 327 602 288 602 289 602 327 603 289 603 328 603 328 604 289 604 329 604 329 605 289 605 286 605 329 606 286 606 285 606 329 607 285 607 330 607 330 608 285 608 283 608 330 609 283 609 284 609 330 610 284 610 331 610 331 611 284 611 307 611 331 612 307 612 309 612 309 613 307 613 308 613 259 614 260 614 332 614 259 615 332 615 258 615 258 616 332 616 257 616 256 617 257 617 333 617 256 618 333 618 255 618 255 619 333 619 334 619 255 620 334 620 254 620 254 621 334 621 335 621 254 622 335 622 253 622 253 623 335 623 252 623 252 624 335 624 336 624 252 625 336 625 265 625 265 626 336 626 337 626 265 627 337 627 264 627 264 628 337 628 338 628 264 629 338 629 263 629 263 630 338 630 262 630 262 631 338 631 339 631 262 632 339 632 261 632 261 633 339 633 340 633 261 634 340 634 260 634 326 635 341 635 325 635 325 636 341 636 342 636 325 637 342 637 324 637 324 638 342 638 343 638 324 639 343 639 323 639 323 640 343 640 344 640 323 641 344 641 322 641 322 642 344 642 321 642 321 643 344 643 345 643 312 644 346 644 311 644 311 645 346 645 347 645 311 646 347 646 310 646 310 647 347 647 348 647 310 648 348 648 309 648 309 649 348 649 331 649 331 650 348 650 349 650 331 651 349 651 330 651 330 652 349 652 350 652 321 653 345 653 320 653 320 654 345 654 351 654 320 655 351 655 319 655 319 656 351 656 318 656 318 657 351 657 352 657 318 658 352 658 317 658 317 659 352 659 353 659 317 660 353 660 316 660 330 661 350 661 354 661 330 662 354 662 329 662 329 663 354 663 328 663 328 664 354 664 355 664 328 665 355 665 327 665 327 666 355 666 356 666 327 667 356 667 326 667 326 668 356 668 341 668 353 669 357 669 316 669 316 670 357 670 315 670 315 671 357 671 314 671 314 672 357 672 358 672 314 673 358 673 313 673 313 674 358 674 359 674 313 675 359 675 312 675 312 676 359 676 346 676 421 677 420 677 422 677 422 678 420 678 423 678 477 679 476 679 420 679 420 680 476 680 478 680 478 681 479 681 420 681 479 682 423 682 420 682 483 683 417 683 480 683 417 684 483 684 418 684 417 685 418 685 481 685 481 686 419 686 417 686 417 687 419 687 484 687 417 688 484 688 482 688 424 689 348 689 425 689 425 690 348 690 347 690 425 691 347 691 426 691 426 692 347 692 346 692 426 693 346 693 427 693 427 694 346 694 428 694 428 695 346 695 359 695 428 696 359 696 429 696 429 697 359 697 358 697 429 698 358 698 430 698 430 699 358 699 431 699 431 700 358 700 357 700 431 701 357 701 432 701 432 702 357 702 433 702 433 703 357 703 353 703 433 704 353 704 434 704 434 705 353 705 435 705 435 706 353 706 352 706 435 707 352 707 351 707 435 708 351 708 436 708 436 709 351 709 437 709 437 710 351 710 345 710 437 711 345 711 438 711 438 712 345 712 344 712 438 713 344 713 439 713 439 714 344 714 440 714 440 715 344 715 343 715 440 716 343 716 441 716 441 717 343 717 342 717 441 718 342 718 442 718 442 719 342 719 341 719 442 720 341 720 443 720 443 721 341 721 356 721 443 722 356 722 444 722 444 723 356 723 355 723 444 724 355 724 445 724 445 725 355 725 354 725 445 726 354 726 446 726 446 727 354 727 447 727 447 728 354 728 350 728 447 729 350 729 448 729 448 730 350 730 449 730 449 731 350 731 349 731 449 732 349 732 450 732 450 733 349 733 348 733 450 734 348 734 424 734 451 735 452 735 416 735 416 736 452 736 361 736 361 736 452 736 453 736 361 736 453 736 360 736 360 737 453 737 362 737 362 736 453 736 363 736 363 736 453 736 454 736 363 738 454 738 364 738 364 736 454 736 365 736 365 739 454 739 455 739 365 740 455 740 367 740 367 741 455 741 366 741 366 736 455 736 456 736 366 742 456 742 368 742 368 736 456 736 369 736 369 743 456 743 457 743 369 744 457 744 370 744 370 745 457 745 371 745 371 746 457 746 458 746 371 747 458 747 372 747 372 748 458 748 374 748 374 749 458 749 459 749 374 750 459 750 373 750 373 751 459 751 375 751 375 752 459 752 376 752 376 753 459 753 460 753 376 754 460 754 377 754 377 755 460 755 378 755 378 756 460 756 461 756 378 757 461 757 379 757 379 758 461 758 381 758 381 759 461 759 462 759 381 760 462 760 380 760 380 736 462 736 382 736 382 736 462 736 383 736 383 736 462 736 463 736 383 761 463 761 384 761 384 736 463 736 386 736 386 736 463 736 464 736 386 736 464 736 385 736 385 736 464 736 387 736 387 736 464 736 465 736 387 762 465 762 388 762 388 763 465 763 389 763 389 736 465 736 390 736 390 736 465 736 466 736 390 736 466 736 391 736 391 736 466 736 393 736 393 736 466 736 467 736 393 764 467 764 392 764 392 765 467 765 394 765 394 736 467 736 395 736 395 766 467 766 468 766 395 767 468 767 396 767 396 736 468 736 397 736 397 736 468 736 398 736 398 736 468 736 469 736 398 768 469 768 400 768 400 736 469 736 399 736 399 736 469 736 470 736 399 736 470 736 401 736 401 736 470 736 402 736 402 736 470 736 471 736 402 736 471 736 403 736 403 769 471 769 405 769 405 736 471 736 472 736 405 770 472 770 404 770 404 736 472 736 406 736 406 736 472 736 407 736 407 736 472 736 473 736 407 736 473 736 408 736 408 736 473 736 409 736 409 736 473 736 410 736 410 736 473 736 474 736 410 736 474 736 412 736 412 771 474 771 411 771 411 736 474 736 475 736 411 736 475 736 413 736 413 772 475 772 414 772 414 773 475 773 451 773 414 736 451 736 415 736 415 736 451 736 416 736 337 774 480 774 338 774 480 775 337 775 336 775 338 776 480 776 417 776 339 777 477 777 340 777 335 778 480 778 336 778 477 779 420 779 333 779 477 780 260 780 340 780 260 781 477 781 332 781 417 782 339 782 338 782 420 783 334 783 333 783 477 784 333 784 257 784 477 785 257 785 332 785 477 786 339 786 417 786 335 787 334 787 480 787 480 788 334 788 420 788 457 789 456 789 420 789 480 790 448 790 449 790 480 791 449 791 483 791 449 792 450 792 418 792 449 793 418 793 483 793 450 794 481 794 418 794 424 795 419 795 450 795 450 796 419 796 481 796 484 797 419 797 425 797 425 798 419 798 424 798 417 799 482 799 426 799 426 800 482 800 425 800 425 801 482 801 484 801 460 802 477 802 461 802 461 803 477 803 417 803 460 804 476 804 477 804 459 805 478 805 460 805 460 806 478 806 476 806 459 807 479 807 478 807 423 808 479 808 459 808 458 809 423 809 459 809 458 810 422 810 423 810 457 811 422 811 458 811 457 812 420 812 421 812 457 813 421 813 422 813 417 814 426 814 427 814 417 815 427 815 461 815 461 816 427 816 428 816 461 817 428 817 462 817 462 818 428 818 429 818 462 819 429 819 463 819 463 820 429 820 430 820 463 821 430 821 464 821 464 822 430 822 431 822 464 823 431 823 465 823 465 824 431 824 432 824 465 825 432 825 466 825 466 826 432 826 433 826 466 827 433 827 467 827 467 828 433 828 434 828 467 829 434 829 435 829 467 830 435 830 468 830 468 831 435 831 436 831 468 832 436 832 469 832 469 833 436 833 470 833 470 834 436 834 437 834 470 835 437 835 471 835 471 836 437 836 438 836 471 837 438 837 472 837 472 838 438 838 439 838 472 839 439 839 440 839 472 840 440 840 473 840 473 841 440 841 441 841 473 842 441 842 474 842 474 843 441 843 475 843 475 844 441 844 442 844 475 845 442 845 451 845 451 846 442 846 443 846 451 847 443 847 452 847 452 848 443 848 444 848 452 849 444 849 453 849 453 850 444 850 445 850 453 851 445 851 454 851 454 852 445 852 446 852 454 853 446 853 455 853 455 854 446 854 447 854 455 855 447 855 456 855 456 856 447 856 448 856 456 857 448 857 480 857 456 858 480 858 420 858</p>
        </polylist>
      </mesh>
    </geometry>
  </library_geometries>
  <library_controllers/>
  <library_visual_scenes>
    <visual_scene id="Scene" name="Scene">
      <node id="eSeries_UR5e_058" name="eSeries_UR5e_058" type="NODE">
        <matrix sid="transform">-9.99987e-4 0 -3.89409e-10 0 -3.89409e-10 1.62919e-10 9.99987e-4 0 0 9.99987e-4 -1.62919e-10 0 0 0 0 1</matrix>
        <instance_geometry url="#eSeries_UR5e_058-mesh" name="eSeries_UR5e_058">
          <bind_material>
            <technique_common>
              <instance_material symbol="LinkGrey_002-material" target="#LinkGrey_002-material"/>
            </technique_common>
          </bind_material>
        </instance_geometry>
      </node>
    </visual_scene>
  </library_visual_scenes>
  <scene>
    <instance_visual_scene url="#Scene"/>
  </scene>
</COLLADA>
